<?xml version="1.0" standalone="no"?>
<!DOCTYPE svg PUBLIC "-//W3C//DTD SVG 20010904//EN"
 "http://www.w3.org/TR/2001/REC-SVG-20010904/DTD/svg10.dtd">
<svg version="1.0" xmlns="http://www.w3.org/2000/svg"
 width="1080.000000pt" height="1080.000000pt" viewBox="0 0 1080.000000 1080.000000"
 preserveAspectRatio="xMidYMid meet">
<metadata>
Created by potrace 1.11, written by Peter Selinger 2001-2013
</metadata>
<g transform="translate(0.000000,1080.000000) scale(0.100000,-0.100000)"
fill="#000000" stroke="none">
<path d="M0 5400 l0 -5400 5400 0 5400 0 0 5400 0 5400 -5400 0 -5400 0 0
-5400z m7975 3340 c1177 -486 2141 -884 2141 -884 1 -1 -115 -503 -257 -1116
-194 -832 -264 -1118 -277 -1127 -31 -23 -62 -48 -89 -70 -14 -12 -35 -25 -47
-29 -11 -4 -31 -16 -43 -28 -12 -12 -34 -30 -49 -41 -15 -11 -37 -29 -48 -40
-12 -11 -35 -26 -51 -33 -17 -8 -37 -20 -45 -28 -8 -8 -33 -28 -55 -44 -22
-16 -49 -36 -60 -45 -19 -15 -46 -33 -112 -76 -18 -12 -33 -25 -33 -31 0 -5
-13 -14 -30 -19 -16 -6 -30 -17 -30 -24 0 -7 -16 -19 -35 -25 -19 -6 -40 -20
-45 -30 -5 -10 -21 -21 -35 -24 -14 -4 -25 -13 -25 -20 0 -8 -16 -20 -35 -26
-19 -6 -40 -20 -45 -31 -6 -10 -22 -22 -35 -25 -14 -3 -25 -12 -25 -19 0 -7
-13 -18 -30 -25 -16 -7 -30 -16 -30 -21 0 -5 -17 -18 -37 -29 -43 -24 -94 -60
-117 -83 -9 -9 -25 -19 -36 -22 -11 -3 -20 -12 -20 -20 0 -7 -15 -18 -33 -24
-19 -7 -44 -23 -55 -36 -12 -14 -27 -25 -33 -25 -7 0 -22 -10 -35 -22 -50 -49
-70 -64 -106 -80 -21 -9 -38 -22 -38 -28 0 -6 -13 -16 -30 -21 -16 -6 -30 -17
-30 -24 0 -7 -18 -20 -39 -29 -22 -8 -43 -22 -48 -29 -4 -8 -18 -20 -31 -26
-24 -13 -46 -30 -85 -67 -12 -12 -39 -29 -60 -37 -20 -9 -37 -21 -37 -26 0 -6
-14 -18 -31 -26 -30 -16 -49 -31 -92 -71 -12 -12 -32 -24 -45 -28 -13 -4 -36
-21 -53 -37 -16 -16 -36 -29 -44 -29 -8 0 -15 -6 -15 -13 0 -7 -16 -21 -35
-30 -19 -9 -35 -21 -35 -27 0 -6 -20 -19 -45 -30 -25 -11 -45 -24 -45 -30 0
-6 -16 -18 -35 -27 -19 -9 -35 -20 -35 -25 0 -4 -18 -17 -40 -28 -22 -11 -40
-25 -40 -31 0 -5 -16 -17 -35 -25 -19 -8 -35 -19 -35 -24 0 -6 -16 -18 -35
-27 -19 -9 -35 -22 -35 -29 0 -7 -20 -20 -45 -30 -25 -9 -45 -22 -45 -29 0 -6
-16 -19 -35 -28 -19 -9 -35 -21 -35 -27 0 -6 -16 -18 -35 -26 -19 -8 -35 -19
-35 -24 0 -6 -20 -20 -45 -32 -25 -12 -45 -27 -45 -34 0 -7 -16 -18 -35 -24
-19 -6 -35 -17 -35 -24 0 -7 -16 -20 -35 -29 -19 -9 -35 -21 -35 -27 0 -6 -20
-19 -45 -30 -25 -11 -45 -24 -45 -30 0 -6 -16 -18 -35 -27 -19 -9 -35 -22 -35
-29 0 -7 -20 -20 -45 -30 -25 -9 -45 -22 -45 -29 0 -7 -14 -18 -30 -25 -17 -7
-35 -21 -40 -30 -5 -9 -23 -23 -40 -30 -16 -7 -30 -18 -30 -24 0 -6 -20 -19
-45 -30 -25 -10 -50 -26 -55 -36 -5 -9 -23 -23 -40 -30 -16 -7 -30 -18 -30
-25 0 -8 -16 -19 -35 -25 -19 -6 -35 -18 -35 -25 0 -8 -22 -24 -50 -36 -27
-12 -50 -27 -50 -34 0 -7 -14 -18 -30 -25 -17 -7 -35 -21 -40 -30 -5 -9 -23
-23 -40 -30 -16 -7 -30 -18 -30 -24 0 -6 -20 -19 -45 -30 -25 -10 -50 -26 -55
-36 -5 -9 -23 -23 -40 -30 -16 -7 -30 -18 -30 -25 0 -6 -22 -22 -50 -35 -27
-13 -50 -28 -50 -35 0 -6 -16 -17 -35 -24 -19 -7 -35 -18 -35 -25 0 -7 -18
-21 -40 -31 -22 -10 -40 -23 -40 -30 0 -6 -20 -21 -45 -33 -25 -12 -45 -26
-45 -32 0 -5 -17 -18 -39 -29 -21 -11 -41 -27 -44 -35 -3 -7 -22 -19 -41 -26
-20 -6 -36 -17 -36 -24 0 -7 -22 -23 -50 -36 -27 -13 -50 -29 -50 -35 0 -6
-16 -19 -35 -28 -19 -9 -35 -21 -35 -27 0 -5 -18 -19 -40 -30 -22 -11 -40 -25
-40 -30 0 -5 -22 -21 -50 -35 -27 -14 -50 -30 -50 -35 0 -5 -18 -19 -40 -30
-22 -11 -40 -25 -40 -30 0 -6 -16 -18 -35 -27 -19 -9 -35 -22 -35 -28 0 -6
-25 -23 -56 -38 -30 -15 -53 -31 -50 -36 3 -4 -12 -16 -34 -26 -22 -10 -40
-24 -40 -30 0 -7 -25 -23 -55 -36 -30 -13 -55 -30 -55 -37 0 -8 -18 -21 -40
-30 -22 -9 -40 -23 -40 -30 0 -7 -16 -20 -35 -29 -19 -9 -35 -22 -35 -29 0 -7
-25 -22 -55 -35 -30 -12 -55 -29 -55 -37 0 -7 -18 -21 -40 -30 -22 -9 -40 -23
-40 -29 0 -21 -18 -14 -26 9 -4 13 -39 71 -78 130 -120 182 -203 312 -217 338
-6 14 -38 62 -71 108 -32 45 -58 87 -58 92 0 5 -27 48 -60 95 -33 47 -60 90
-60 95 0 5 -29 51 -65 102 -36 50 -65 96 -65 101 0 4 -27 47 -60 94 -33 48
-60 90 -60 95 0 5 -27 47 -60 94 -33 46 -60 88 -60 92 0 5 -27 47 -60 95 -33
47 -60 90 -60 95 0 5 -19 35 -42 67 -23 32 -51 75 -62 96 -12 21 -43 72 -71
113 -136 205 -155 235 -155 241 0 4 -25 42 -55 85 -30 43 -55 81 -55 85 0 4
-22 39 -50 79 -27 40 -50 76 -50 80 0 5 -22 39 -50 77 -27 38 -50 72 -50 77 0
4 -20 37 -45 72 -25 35 -45 68 -45 72 0 5 -23 39 -50 77 -28 38 -50 73 -50 78
0 5 -20 37 -45 71 -25 34 -45 65 -45 69 0 4 -20 38 -45 75 -25 38 -65 100 -90
138 -25 39 -66 103 -92 143 -25 39 -63 98 -85 129 -21 31 -38 60 -38 64 0 3
-20 35 -45 70 -25 34 -45 66 -45 69 0 4 -18 32 -40 64 -22 31 -40 60 -40 64 0
4 -18 32 -40 62 -22 30 -40 58 -40 63 0 5 -18 33 -40 62 -22 29 -40 57 -40 62
0 5 -9 21 -19 36 -15 20 -91 387 -310 1507 -159 814 -291 1493 -293 1510 l-3
29 2620 493 c1441 270 2634 491 2650 490 17 -2 993 -401 2170 -887z"/>
</g>
</svg>
